<?xml version="1.0" standalone="no"?>
<!DOCTYPE svg PUBLIC "-//W3C//DTD SVG 20010904//EN"
 "http://www.w3.org/TR/2001/REC-SVG-20010904/DTD/svg10.dtd">
<svg version="1.0" xmlns="http://www.w3.org/2000/svg"
 width="1024.000000pt" height="1024.000000pt" viewBox="0 0 1024.000000 1024.000000"
 preserveAspectRatio="xMidYMid meet">
<metadata>
Created by potrace 1.14, written by Peter Selinger 2001-2017
</metadata>
<g transform="translate(0.000000,1024.000000) scale(0.100000,-0.100000)"
fill="#000000" stroke="none">
<path d="M5754 9935 c-19 -14 -18 -14 3 -15 12 0 26 -8 32 -17 8 -15 13 -16
29 -6 16 9 23 8 36 -5 12 -12 19 -14 24 -5 4 6 16 13 27 15 14 2 19 -2 17 -14
-2 -13 4 -18 23 -18 14 0 25 5 25 10 0 6 5 10 10 10 6 0 10 -7 10 -15 0 -9 14
-16 38 -20 32 -5 72 -21 145 -57 10 -5 23 -5 30 -1 17 11 48 4 76 -18 13 -10
34 -19 46 -19 13 0 30 -11 40 -26 13 -20 19 -23 25 -14 10 17 44 4 37 -14 -8
-20 13 -36 44 -36 15 0 31 -5 34 -10 5 -8 12 -7 22 2 13 10 18 9 33 -10 10
-12 25 -22 33 -22 8 0 18 -7 21 -16 3 -8 10 -13 16 -9 14 9 50 -32 44 -50 -7
-17 11 -21 22 -4 5 8 10 7 16 -4 5 -9 15 -14 22 -11 8 3 19 -4 26 -15 6 -12
17 -21 25 -21 8 0 15 -4 15 -10 0 -5 16 -12 35 -16 20 -4 35 -12 35 -20 0 -8
7 -17 15 -20 8 -4 15 -12 15 -20 0 -8 7 -14 16 -14 10 0 13 -6 10 -18 -6 -19
23 -55 40 -51 29 7 76 -35 67 -59 -6 -15 36 -64 48 -56 5 3 9 -1 9 -8 0 -7 18
-31 40 -53 21 -22 39 -45 40 -52 0 -7 12 -25 26 -40 15 -15 33 -43 40 -60 8
-18 19 -33 24 -33 6 0 10 -9 10 -20 0 -10 9 -24 20 -30 11 -6 18 -15 15 -20
-3 -5 -1 -11 5 -15 5 -3 10 -14 10 -24 0 -10 11 -28 25 -41 14 -13 23 -30 20
-38 -2 -7 -1 -11 4 -7 5 3 17 -13 27 -35 10 -22 26 -42 36 -46 10 -3 16 -10
12 -15 -3 -6 1 -18 8 -27 27 -31 30 -42 12 -35 -14 5 -16 3 -11 -11 4 -10 7
-23 7 -29 0 -7 4 -6 10 3 8 13 10 12 10 -2 0 -10 -5 -18 -12 -18 -6 0 -8 -3
-5 -6 4 -4 13 -1 21 5 12 10 13 8 9 -10 -4 -14 -2 -20 4 -16 6 4 9 -4 7 -21
-2 -15 -1 -21 2 -14 5 10 9 10 20 1 17 -14 19 -59 2 -59 -8 -1 -4 -8 7 -18 11
-9 19 -24 17 -34 -2 -9 2 -19 7 -23 6 -3 11 -16 11 -28 0 -18 -2 -19 -10 -7
-5 8 -10 11 -10 6 0 -5 7 -18 16 -28 16 -16 16 -18 0 -24 -29 -11 -17 -26 15
-19 22 5 29 4 25 -4 -4 -6 -13 -11 -20 -11 -7 0 -20 -19 -29 -42 -9 -23 -19
-39 -23 -36 -3 4 1 19 9 35 14 27 14 28 -9 29 -21 2 -23 0 -13 -13 10 -11 10
-16 1 -22 -13 -8 -5 -51 10 -51 5 0 6 -5 3 -10 -4 -6 -10 -8 -15 -5 -4 3 -16
-15 -26 -40 -11 -30 -22 -44 -31 -41 -7 3 -13 1 -13 -3 0 -5 5 -11 12 -13 7
-3 9 -11 3 -24 -9 -21 -17 -121 -16 -194 1 -46 22 -162 35 -191 4 -9 6 -20 4
-25 -1 -5 4 -34 12 -64 7 -30 15 -62 16 -70 1 -8 9 -42 18 -75 9 -32 16 -69
16 -82 0 -12 5 -25 11 -29 6 -3 9 -19 5 -35 -3 -16 -1 -29 3 -29 14 0 32 -94
36 -184 2 -44 8 -82 14 -85 5 -3 9 -27 9 -53 -1 -26 5 -54 12 -63 12 -14 11
-18 -1 -25 -11 -7 -11 -12 -1 -22 9 -9 12 -9 12 5 0 9 7 17 15 17 8 0 14 -3
14 -7 -3 -20 2 -26 11 -13 8 13 10 12 10 -2 0 -10 -4 -18 -10 -18 -5 0 -10 -7
-10 -16 0 -9 5 -12 12 -8 7 5 9 2 5 -8 -3 -9 0 -21 6 -27 6 -6 7 -14 2 -18 -4
-5 -10 -2 -12 5 -3 6 -9 12 -14 12 -23 0 11 -33 34 -34 14 -1 23 2 21 6 -2 4
5 6 16 5 14 -1 20 -8 20 -24 0 -13 5 -23 10 -23 6 0 10 -7 10 -15 0 -8 -7 -15
-15 -15 -25 0 -17 -24 14 -38 23 -10 29 -20 35 -59 6 -46 -10 -126 -24 -118
-4 3 -10 -9 -14 -26 -9 -44 -7 -56 4 -39 6 9 10 10 10 3 0 -19 -21 -27 -32
-12 -8 11 -8 10 -4 -4 3 -10 6 -21 6 -23 0 -3 5 -2 10 1 6 3 10 1 10 -5 0 -7
-6 -10 -14 -7 -18 7 -36 -11 -29 -29 7 -18 -11 -18 -26 0 -8 10 -9 16 -1 21
17 11 11 25 -11 25 -18 0 -20 5 -16 26 3 16 0 28 -9 31 -8 3 -14 12 -14 20 0
8 4 12 9 8 5 -3 17 2 25 11 22 22 43 11 56 -28 l10 -33 -5 33 c-3 23 -1 31 6
26 7 -4 10 -1 7 7 -3 8 -12 13 -19 11 -7 -2 -19 5 -26 14 -12 17 -14 17 -27
-1 -8 -12 -19 -16 -31 -11 -23 9 -55 -20 -55 -50 0 -12 5 -24 12 -26 7 -3 9
-12 5 -22 -5 -13 -11 -15 -27 -6 -20 11 -30 -3 -10 -15 17 -10 12 -48 -5 -42
-8 4 -17 2 -20 -3 -4 -6 2 -10 12 -11 15 0 14 -2 -4 -11 -26 -13 -29 -25 -10
-53 22 -31 25 -59 10 -74 -8 -7 -17 -10 -21 -6 -4 4 -1 10 6 12 14 5 17 53 2
53 -5 0 -10 -11 -10 -25 0 -14 -4 -25 -10 -25 -18 0 -10 -22 10 -27 11 -3 20
-14 20 -24 0 -11 4 -19 9 -19 14 0 23 33 10 40 -7 5 -8 10 -1 14 11 7 23 -18
17 -36 -12 -37 -12 -76 -1 -72 8 3 11 15 8 30 -2 13 0 24 7 24 5 0 8 -7 4 -16
-3 -9 -1 -19 5 -23 8 -4 4 -20 -10 -48 -12 -23 -25 -40 -30 -37 -4 3 -9 -16
-10 -43 -2 -74 -2 -76 -16 -81 -6 -2 -12 -13 -12 -24 0 -18 -2 -19 -17 -7 -16
13 -17 12 -5 -3 13 -16 7 -70 -7 -65 -3 1 -7 -2 -8 -7 0 -5 -9 -13 -18 -18
-11 -7 -15 -19 -12 -36 2 -15 2 -21 0 -14 -3 6 -8 12 -13 12 -13 0 -18 -36 -8
-54 8 -15 0 -21 -24 -17 -13 2 -9 -27 5 -32 15 -5 -7 -53 -38 -80 -11 -10 -14
-16 -7 -12 8 4 12 -1 12 -15 0 -12 -10 -25 -25 -32 -14 -6 -25 -14 -26 -17 -3
-28 -9 -45 -17 -50 -13 -9 -21 -60 -10 -67 5 -3 0 -17 -13 -30 -12 -13 -22
-31 -23 -41 -3 -30 -29 -74 -41 -69 -6 2 -12 -4 -12 -14 -3 -30 27 -33 50 -4
17 23 21 24 29 10 6 -11 23 -16 54 -16 54 0 51 15 -5 24 -22 3 -42 10 -45 15
-3 5 3 30 15 55 l20 47 20 -25 c11 -14 53 -42 94 -62 l75 -37 102 6 c127 8
237 38 306 84 58 38 132 124 132 153 0 10 2 24 5 32 3 7 -1 22 -9 33 -13 19
-18 16 -95 -58 -44 -42 -87 -77 -95 -77 -8 0 -17 -4 -21 -9 -7 -13 52 4 73 21
10 6 31 23 47 37 l30 26 -28 -31 c-41 -46 -111 -80 -199 -98 -97 -20 -139 -20
-236 0 -92 19 -140 38 -165 64 -19 21 -17 31 15 66 11 12 32 59 48 104 17 48
37 88 49 97 14 10 21 25 21 49 0 24 5 34 15 34 8 0 16 7 16 15 1 8 3 20 4 25
1 6 3 17 4 25 1 10 12 15 34 15 27 1 30 3 16 13 -11 9 -14 27 -12 74 3 71 47
165 115 246 39 47 52 92 30 106 -5 3 -11 15 -13 26 -2 10 -15 22 -29 25 l-25
6 25 7 c38 10 40 9 40 -17 0 -38 16 -39 31 -3 7 17 27 46 44 62 35 33 54 99
76 257 8 55 19 95 29 105 16 17 15 19 -14 28 -22 7 -32 19 -39 44 -4 18 -6 40
-3 48 3 8 35 28 72 44 36 17 85 49 108 72 23 23 71 69 108 101 58 53 66 64 71
103 3 25 14 54 25 66 42 45 54 134 47 342 -8 239 -11 326 -13 346 -1 9 -17 39
-36 66 -19 28 -50 81 -69 119 -65 126 -236 240 -435 290 -52 12 -96 25 -99 28
-3 3 -7 59 -9 126 -4 109 -2 125 20 178 41 97 57 163 63 263 l6 97 -39 24
c-107 66 -436 185 -491 177 -61 -9 -109 31 -98 80 5 24 -2 34 -48 77 -215 199
-271 239 -472 344 -66 35 -124 66 -130 70 -25 17 -173 73 -229 85 -33 8 -99
27 -146 44 -47 17 -131 37 -187 46 -126 18 -125 18 -149 0z m1833 -1607 c-3
-7 -5 -2 -5 12 0 14 2 19 5 13 2 -7 2 -19 0 -25z m323 -1712 c0 -3 -4 -8 -10
-11 -5 -3 -10 -1 -10 4 0 6 5 11 10 11 6 0 10 -2 10 -4z m-250 -259 c0 -7 9
-30 20 -52 22 -44 25 -65 9 -65 -5 0 -7 -4 -4 -10 4 -6 -6 -7 -26 -3 -23 4
-30 3 -25 -5 4 -7 3 -12 -2 -12 -6 0 -12 6 -15 14 -7 19 21 42 45 38 10 -2 18
2 18 7 0 6 -8 11 -17 11 -13 0 -15 2 -5 8 10 7 10 14 -3 38 -17 33 -20 58 -5
49 6 -3 10 -12 10 -18z m13 -161 c4 -10 1 -13 -9 -9 -7 3 -14 9 -14 14 0 14
17 10 23 -5z m-37 -29 c-4 -27 -29 -29 -34 -3 -4 19 16 39 30 30 4 -3 6 -15 4
-27z m114 -17 c8 -5 11 -10 5 -10 -5 0 -17 5 -25 10 -8 5 -10 10 -5 10 6 0 17
-5 25 -10z"/>
<path d="M4006 9423 c-59 -95 -54 -91 -93 -82 -20 4 -40 12 -46 18 -16 16 -70
13 -177 -9 -155 -33 -334 -105 -344 -138 -21 -74 -27 -183 -16 -294 13 -130 8
-273 -15 -378 -8 -36 -22 -112 -32 -168 -16 -95 -20 -105 -45 -118 -15 -8 -34
-14 -43 -14 -27 0 -211 -58 -255 -80 -23 -12 -61 -39 -83 -59 -23 -21 -51 -41
-63 -45 -22 -7 -104 -84 -104 -98 0 -4 -13 -27 -30 -50 -16 -22 -30 -47 -30
-54 0 -7 -11 -33 -24 -56 -32 -58 -72 -195 -87 -296 -19 -140 -8 -257 39 -399
71 -213 136 -326 284 -495 32 -36 58 -73 58 -81 0 -18 -105 -119 -145 -140
-17 -8 -67 -29 -113 -47 -113 -43 -145 -76 -162 -162 -23 -123 14 -201 118
-250 98 -46 269 10 494 162 181 122 251 184 350 309 63 79 197 326 146 268 -7
-7 -41 -43 -76 -78 -53 -56 -65 -74 -82 -133 -20 -69 -48 -113 -74 -113 -8 0
-12 6 -9 15 4 9 8 10 13 3 4 -8 13 -4 26 11 17 20 17 21 1 8 -16 -11 -20 -12
-27 0 -6 10 -17 0 -39 -35 -37 -58 -40 -75 -8 -49 12 10 5 0 -16 -22 -21 -23
-53 -50 -72 -60 -19 -10 -62 -43 -97 -73 l-63 -55 68 70 c69 72 81 98 79 179
0 25 1 27 8 10 6 -16 9 -17 13 -5 12 35 16 80 7 80 -6 0 -10 9 -10 20 0 11 5
20 10 20 6 0 10 7 10 16 0 11 5 14 16 10 11 -4 14 -1 9 13 -5 15 -1 18 21 13
19 -3 25 -1 20 7 -4 6 -18 11 -31 11 -13 0 -27 5 -31 11 -5 8 0 10 17 6 29 -7
71 2 64 14 -3 4 3 17 13 27 10 10 16 24 14 30 -2 7 3 12 12 12 9 0 16 4 16 9
0 6 -12 9 -27 8 -24 -2 -28 1 -24 23 l3 25 -23 -20 -22 -20 8 20 c4 11 10 31
13 45 3 14 10 28 15 32 8 4 8 14 1 30 -11 25 -4 111 16 188 6 24 9 53 6 62 -2
10 -1 16 4 13 4 -3 11 2 14 11 3 8 2 12 -4 9 -11 -7 -14 18 -3 29 4 4 9 25 10
48 2 22 7 46 13 53 5 6 8 22 5 35 -2 13 2 37 10 54 8 17 13 43 11 59 -2 15 0
30 5 33 4 2 6 11 2 19 -3 8 0 15 6 15 6 0 9 15 7 36 -2 23 3 38 13 44 11 6 12
12 5 22 -15 19 -9 96 10 142 9 22 13 42 8 45 -5 3 -9 52 -9 108 0 66 -5 108
-13 117 -6 9 -9 20 -6 25 4 5 1 13 -4 16 -7 4 -8 19 -5 37 6 24 3 30 -14 35
-12 3 -21 13 -21 23 0 31 -27 71 -66 98 -24 16 -33 27 -25 30 10 3 10 6 1 12
-9 5 -8 16 4 45 9 20 16 46 16 56 0 10 11 26 26 35 14 9 23 23 20 30 -3 8 -2
14 2 14 4 0 9 17 10 38 2 20 9 42 16 47 9 7 10 15 3 26 -7 11 -3 26 17 57 14
23 26 48 26 56 0 8 11 23 25 34 14 11 25 23 25 27 0 3 7 13 15 21 8 8 11 21 8
30 -3 9 3 21 16 31 17 11 21 22 17 44 -4 25 0 32 20 41 14 7 24 20 24 32 0 13
12 28 29 37 16 10 45 42 65 73 20 31 42 56 51 56 8 0 21 13 30 29 8 17 26 42
39 56 14 15 22 33 20 40 -3 7 8 21 25 31 16 10 32 28 36 41 3 13 11 23 19 23
18 0 86 63 86 80 0 8 19 32 43 53 27 24 37 40 30 43 -7 3 -13 14 -13 24 0 38
-19 28 -54 -27z m-776 -2929 c0 -2 -9 -13 -20 -24 -20 -20 -20 -20 -16 3 3 12
5 25 5 29 1 7 31 -1 31 -8z m0 -103 c0 -6 -4 -13 -10 -16 -5 -3 -10 1 -10 9 0
9 5 16 10 16 6 0 10 -4 10 -9z"/>
<path d="M6327 9063 c-16 -15 146 -192 212 -231 67 -40 97 14 39 69 -74 69
-238 175 -251 162z"/>
<path d="M4460 8988 c-126 -84 -200 -175 -156 -191 23 -9 84 41 164 135 97
115 96 125 -8 56z"/>
<path d="M5386 8595 c-15 -12 -22 -12 -27 -3 -6 9 -13 7 -28 -6 -14 -13 -28
-16 -45 -12 -18 4 -42 -3 -81 -24 -30 -16 -68 -30 -84 -30 -16 0 -39 -9 -53
-19 -44 -35 -108 -56 -129 -42 -24 15 -71 -4 -121 -48 -20 -17 -41 -31 -47
-31 -7 0 -23 -7 -36 -16 -13 -9 -36 -17 -50 -19 -14 -1 -40 -16 -57 -34 -17
-17 -35 -31 -41 -31 -5 0 -25 -18 -44 -39 -19 -23 -46 -42 -64 -46 -17 -4 -56
-32 -92 -66 -33 -32 -69 -61 -79 -65 -10 -3 -18 -12 -18 -20 0 -8 -10 -25 -23
-37 -13 -12 -29 -36 -36 -54 -7 -18 -24 -39 -37 -48 -13 -8 -24 -22 -24 -30 0
-24 -60 -105 -90 -120 -16 -8 -31 -23 -35 -33 -3 -11 -26 -38 -50 -61 -25 -23
-45 -49 -45 -57 0 -7 -5 -14 -10 -14 -6 0 -17 -18 -26 -40 -9 -22 -19 -40 -23
-40 -5 0 -14 -18 -21 -41 -8 -23 -21 -43 -29 -46 -35 -10 -46 -21 -43 -43 2
-12 -5 -31 -15 -42 -10 -11 -25 -39 -34 -61 -9 -23 -21 -42 -27 -42 -6 0 -14
-4 -19 -9 -5 -5 -3 -6 5 -2 16 10 15 -2 -2 -19 -7 -8 -17 -11 -21 -7 -5 4 -5
2 -1 -5 3 -6 2 -14 -4 -18 -5 -3 -10 -15 -10 -26 0 -11 -11 -37 -25 -57 -14
-20 -25 -42 -25 -49 0 -7 -11 -13 -25 -13 -27 0 -32 -9 -56 -90 -7 -25 -23
-65 -36 -89 -13 -24 -23 -55 -23 -67 0 -13 -4 -24 -9 -24 -4 0 -6 -11 -4 -24
4 -20 0 -24 -31 -30 -38 -7 -41 -26 -4 -26 18 0 20 -5 16 -49 -3 -50 4 -55 30
-19 8 11 39 49 71 86 31 37 68 83 83 102 14 19 64 75 112 124 47 49 86 93 86
98 0 4 3 7 8 7 21 -4 32 2 26 14 -5 8 -4 9 4 2 8 -7 8 -68 0 -219 -14 -273 1
-476 57 -755 3 -18 -14 -44 -85 -123 -143 -162 -236 -220 -410 -258 -52 -11
-97 -20 -100 -20 -3 0 27 16 65 35 39 20 88 51 110 70 l40 36 -62 -39 c-34
-22 -102 -52 -150 -68 -77 -25 -103 -29 -203 -29 -138 1 -217 19 -345 80 -118
56 -208 120 -252 181 -20 27 -34 42 -31 34 16 -47 28 -88 33 -110 4 -16 34
-46 86 -85 44 -33 87 -67 97 -76 87 -80 223 -102 524 -88 81 4 98 -1 79 -25
-10 -11 -5 -22 26 -53 21 -22 44 -51 52 -66 8 -15 17 -27 21 -27 4 0 15 -20
25 -44 10 -25 23 -42 28 -39 6 3 7 1 4 -5 -8 -12 2 -44 12 -38 4 3 8 -4 8 -15
1 -10 15 -38 31 -61 16 -24 41 -61 55 -83 48 -71 64 -89 64 -71 0 9 -4 16 -9
16 -4 0 -8 4 -8 10 0 5 -11 26 -25 46 -14 20 -22 40 -19 45 3 5 1 9 -5 9 -8 0
-16 21 -26 70 -1 3 -5 15 -9 28 -11 32 -3 36 33 18 16 -9 40 -16 52 -16 49 0
135 -132 143 -220 4 -40 1 -52 -11 -57 -12 -5 -11 -9 8 -19 13 -7 32 -13 41
-14 10 0 25 -15 34 -32 9 -18 34 -58 55 -89 36 -54 37 -59 26 -94 -6 -20 -23
-50 -39 -67 -15 -16 -38 -53 -52 -81 -42 -86 -57 -164 -88 -442 -16 -148 -16
-705 1 -845 7 -63 16 -150 20 -193 4 -45 12 -81 19 -86 9 -5 3 -19 -22 -52
-37 -46 -138 -139 -153 -139 -5 0 -27 -17 -49 -38 -23 -20 -58 -50 -78 -66
-27 -20 -36 -34 -33 -47 3 -12 -3 -25 -16 -34 l-22 -16 25 -20 25 -20 -25 7
c-14 3 -25 7 -25 8 -8 30 -43 81 -67 96 -41 25 -199 68 -303 82 -12 2 -21 12
-23 26 -4 26 -18 27 -87 8 -75 -22 -116 -38 -160 -65 -79 -48 -121 -72 -185
-104 -258 -130 -382 -321 -384 -592 0 -73 6 -125 23 -195 23 -95 24 -95 95
-165 80 -79 169 -135 257 -161 34 -10 61 -25 64 -34 3 -9 22 -34 43 -56 21
-22 43 -48 49 -58 6 -11 13 -14 17 -8 3 6 0 16 -7 24 -24 25 -47 68 -37 68 16
0 12 18 -11 41 -13 13 -18 27 -14 39 6 19 -11 96 -27 116 -4 6 -7 33 -7 60 1
80 -1 93 -11 99 -15 10 0 33 36 54 29 17 33 24 25 43 -18 51 31 128 83 128 12
0 26 8 33 19 6 10 25 21 42 24 20 4 35 15 40 30 10 25 29 37 62 37 10 0 19 7
19 15 0 16 46 39 60 30 16 -10 71 7 66 21 -3 9 2 14 14 14 12 0 17 -5 14 -14
-10 -25 29 -29 48 -4 l17 23 38 -20 c28 -15 39 -28 43 -50 5 -28 8 -30 42 -27
27 3 42 -2 57 -17 12 -12 27 -18 36 -15 9 4 24 -1 34 -10 12 -11 27 -14 48
-10 25 5 33 2 42 -14 6 -11 21 -24 33 -28 39 -12 96 -79 100 -116 2 -28 7 -34
31 -36 20 -3 32 -13 47 -43 11 -21 27 -39 36 -39 19 0 29 -27 15 -43 -7 -10
-7 -19 3 -33 23 -33 42 -209 24 -220 -4 -3 -8 -27 -8 -54 0 -78 -64 -218 -95
-207 -13 6 -42 -9 -34 -17 3 -3 21 -1 40 4 19 6 59 15 89 20 30 6 102 19 160
29 107 19 153 32 203 57 43 21 216 19 264 -3 48 -23 64 -42 105 -127 l33 -68
6 56 c11 95 123 256 219 314 68 40 100 49 230 63 183 18 210 5 281 -148 27
-57 49 -105 49 -107 0 -2 10 -22 23 -44 l22 -39 1 61 c1 34 8 78 17 100 11 25
17 66 17 116 0 77 18 168 46 235 8 19 14 45 14 58 0 32 22 51 38 35 9 -9 12 0
12 38 1 111 65 198 259 353 342 272 659 463 1070 645 57 25 132 61 168 80 53
28 65 32 70 19 15 -39 -56 -160 -112 -192 -11 -7 -51 -13 -90 -14 l-70 -2 -3
-33 c-2 -18 6 -61 18 -95 41 -117 108 -362 126 -462 22 -122 25 -340 6 -405
-11 -37 -24 -52 -75 -90 -69 -49 -183 -110 -208 -110 -10 0 -25 24 -43 69 -35
90 -72 146 -142 218 -118 119 -447 309 -555 320 -60 6 -77 -4 -60 -34 11 -20
70 -63 170 -125 35 -21 61 -41 59 -44 -3 -2 -40 -15 -84 -28 -43 -13 -101 -32
-129 -41 -166 -60 -216 -80 -268 -106 -57 -30 -59 -30 -79 -12 -21 18 -21 18
-14 -12 4 -16 23 -55 43 -85 34 -51 35 -56 22 -85 -17 -37 -17 -152 0 -183 7
-12 19 -21 28 -20 25 5 35 -37 14 -64 -17 -22 -23 -36 -37 -90 -3 -13 35 53
84 146 49 94 98 176 109 183 27 18 172 20 233 3 80 -21 163 -73 237 -147 40
-40 75 -84 79 -100 4 -15 16 -40 28 -56 14 -19 22 -50 26 -105 5 -65 7 -72 15
-47 35 123 76 161 185 167 115 7 150 27 263 149 9 10 17 23 17 28 0 5 6 11 13
14 17 6 59 84 82 152 29 87 36 145 36 315 0 91 3 170 7 176 4 6 51 10 117 11
87 0 128 6 195 25 47 14 92 27 100 29 10 3 15 -3 14 -18 -1 -37 33 -29 50 12
13 31 20 35 53 37 21 0 46 0 56 0 10 -1 21 8 26 21 10 25 74 84 109 100 15 7
26 7 33 0 5 -5 26 -7 47 -3 24 4 47 2 65 -7 21 -11 32 -11 42 -3 7 6 16 7 19
2 3 -5 27 -6 53 -1 57 8 96 3 140 -19 37 -19 59 -58 43 -77 -11 -14 0 -37 49
-103 31 -40 41 -40 41 -3 0 25 -3 28 -21 24 -16 -4 -20 -2 -17 8 3 8 10 14 16
14 20 0 22 12 8 59 -16 52 -41 86 -63 86 -8 0 -34 13 -57 29 -36 25 -55 31
-124 35 -45 3 -91 10 -104 17 -13 6 -61 46 -108 87 -74 65 -89 84 -118 149
-27 60 -35 92 -37 155 -5 92 -13 109 -125 269 -44 63 -119 150 -191 221 -66
64 -119 121 -119 127 0 5 10 74 22 153 19 120 22 186 22 418 1 391 -24 535
-136 768 -13 27 -18 53 -15 71 9 45 -198 -165 -248 -252 -34 -58 -47 -71 -98
-98 -32 -17 -61 -28 -64 -26 -2 3 16 19 40 36 41 28 107 104 107 123 0 4 -42
-19 -92 -51 -51 -32 -115 -69 -143 -83 -77 -39 -236 -100 -242 -94 -3 3 9 12
28 20 19 9 30 15 24 16 -5 0 -11 21 -11 46 -1 33 2 44 11 40 10 -4 13 6 10 39
-2 25 1 47 6 50 5 4 7 11 4 16 -4 5 1 19 9 31 18 25 21 58 6 58 -6 0 -15 -12
-21 -26 -5 -15 -12 -24 -16 -21 -7 8 55 102 120 184 47 59 54 63 151 99 228
83 335 157 462 319 21 28 42 52 45 55 3 3 20 34 38 70 41 84 32 41 -27 -124
-25 -72 -90 -217 -144 -323 -54 -106 -98 -195 -98 -199 0 -14 42 31 91 97 28
39 49 77 49 92 0 14 5 27 10 29 6 2 12 13 14 24 3 12 15 43 29 70 13 27 30 66
36 87 7 20 16 37 19 37 4 0 8 10 9 23 0 12 9 40 19 62 10 22 18 42 19 45 13
58 18 70 26 70 6 0 8 4 5 8 -9 14 16 92 27 85 5 -3 7 -2 4 4 -5 9 -1 30 23
121 18 65 40 272 47 432 3 85 9 146 13 135 12 -34 20 1 22 101 2 70 -1 99 -10
102 -7 2 -9 8 -6 13 3 6 1 15 -4 22 -6 7 -13 57 -17 112 -5 64 -13 108 -24
124 -16 26 -31 119 -32 204 0 32 -5 50 -15 54 -7 3 -11 9 -8 14 3 5 1 9 -5 9
-23 0 -41 33 -41 78 0 46 -14 96 -38 139 -7 12 -12 28 -12 36 0 8 -9 17 -20
20 -15 4 -20 14 -20 37 0 25 -11 41 -60 87 -33 30 -60 61 -60 68 0 7 -17 22
-37 32 -24 11 -40 27 -44 44 -9 35 -49 89 -66 89 -7 0 -13 6 -13 13 0 8 -20
34 -45 58 -76 74 -92 93 -109 127 -10 18 -24 36 -33 39 -8 3 -25 15 -37 27
-12 12 -31 29 -42 38 -10 9 -41 46 -69 82 -27 36 -55 66 -62 66 -6 0 -13 10
-15 22 -2 13 -13 24 -29 28 -14 4 -48 24 -76 44 -28 20 -54 36 -57 36 -4 0
-22 11 -40 25 -18 14 -36 25 -40 25 -9 0 -72 45 -108 78 -14 13 -31 21 -37 18
-6 -4 -11 0 -11 9 0 24 -47 42 -72 26 -17 -10 -25 -9 -52 10 -18 12 -37 31
-42 43 -7 17 -16 20 -45 18 -32 -3 -38 1 -64 38 -24 35 -32 40 -55 35 -18 -4
-31 -1 -40 10 -10 12 -23 15 -52 10 -33 -6 -42 -3 -67 23 -26 25 -32 27 -44
15 -22 -22 -115 -6 -143 24 -25 27 -32 28 -58 8z m504 -725 c0 -5 -4 -10 -10
-10 -5 0 -10 5 -10 10 0 6 5 10 10 10 6 0 10 -4 10 -10z m415 -80 c3 -5 -1
-10 -9 -10 -9 0 -16 5 -16 10 0 6 4 10 9 10 6 0 13 -4 16 -10z m-680 -20 c3
-5 1 -10 -4 -10 -6 0 -11 5 -11 10 0 6 2 10 4 10 3 0 8 -4 11 -10z m555 -11
c0 -5 -4 -9 -10 -9 -5 0 -10 7 -10 16 0 8 5 12 10 9 6 -3 10 -10 10 -16z m62
-51 c-6 -6 -15 -8 -19 -4 -4 4 -1 11 7 16 19 12 27 3 12 -12z m-241 -19 c5 -8
9 -25 9 -39 0 -20 2 -22 10 -10 8 13 10 12 10 -2 0 -16 11 -22 32 -19 4 0 7
-7 7 -17 0 -9 4 -37 10 -62 14 -63 13 -201 -3 -370 -14 -139 -50 -384 -62
-414 -4 -10 -29 -17 -72 -22 -37 -4 -85 -13 -107 -20 -22 -8 -29 -12 -15 -9
14 2 61 7 104 11 l79 7 -6 -44 c-7 -55 -87 -309 -124 -398 -29 -70 -55 -121
-93 -185 -14 -22 -19 -37 -13 -33 14 9 89 136 98 167 16 52 36 70 104 90 151
45 320 67 340 44 5 -5 11 -21 15 -36 6 -25 3 -28 -36 -38 -186 -49 -287 -92
-401 -170 -42 -29 -88 -68 -102 -86 -14 -19 -31 -34 -38 -34 -7 0 -18 -9 -25
-20 -7 -11 -17 -20 -22 -20 -6 0 3 26 19 58 36 73 158 448 149 458 -2 2 -23
-26 -47 -62 -75 -113 -218 -281 -309 -360 -88 -78 -210 -169 -216 -163 -2 2
-13 30 -26 61 -13 32 -25 56 -27 54 -4 -4 65 -177 74 -185 6 -6 2 6 -12 42 -4
9 14 27 47 49 117 78 216 165 371 327 48 50 87 85 87 76 0 -51 -123 -363 -150
-380 -5 -3 -15 -16 -21 -28 -9 -15 0 -11 30 15 43 37 207 126 216 117 2 -3 -4
-23 -15 -45 -73 -148 -60 -349 30 -463 50 -63 132 -111 191 -111 56 0 151 45
202 94 42 42 92 133 102 188 7 35 6 37 -37 56 -46 20 -122 96 -115 115 9 28
31 22 161 -41 10 -5 -2 70 -21 122 -22 64 -90 147 -135 164 -52 21 -33 31 72
39 44 3 80 9 80 13 0 17 -32 109 -50 145 -11 21 -20 45 -20 52 0 7 -4 21 -9
31 -5 9 -28 85 -52 167 -23 83 -44 156 -46 163 -4 9 16 12 78 14 l84 1 -82 6
c-45 3 -84 8 -87 11 -3 3 -21 66 -40 140 -19 74 -42 162 -52 195 -14 47 -18
108 -21 285 l-4 225 25 0 c13 0 22 -3 20 -6 -8 -13 97 -18 117 -6 15 9 23 9
39 -1 11 -6 28 -12 39 -12 10 0 24 -7 31 -15 15 -18 40 -20 40 -3 0 7 17 -6
38 -28 39 -42 82 -57 82 -30 0 9 5 16 10 16 6 0 10 -7 10 -15 0 -8 7 -15 16
-15 8 0 12 -4 9 -10 -3 -5 -1 -10 4 -10 6 0 11 6 11 13 0 6 9 -7 20 -30 19
-43 40 -57 40 -28 0 18 16 20 26 3 5 -7 10 -4 15 10 9 24 33 29 45 11 4 -7 -4
-20 -17 -31 l-24 -19 23 6 c37 10 89 -49 106 -122 l13 -58 8 58 c4 32 10 55
14 52 3 -4 6 -13 6 -21 0 -23 20 -21 23 4 2 12 8 22 13 22 14 0 11 -18 -7 -46
-9 -13 -14 -27 -10 -31 3 -3 6 -2 6 3 0 6 16 8 35 6 22 -3 35 -10 35 -19 0 -8
4 -12 9 -9 14 9 74 -52 68 -69 -4 -8 -1 -17 6 -21 7 -4 9 -4 5 1 -8 9 15 35
31 35 15 0 14 -17 -1 -23 -8 -3 -5 -6 5 -6 21 -1 47 -24 47 -41 0 -7 7 -10 15
-6 13 4 14 2 5 -14 -9 -16 -8 -19 7 -13 13 5 15 3 10 -11 -4 -10 -3 -15 3 -11
10 6 49 -32 50 -48 0 -5 18 -29 40 -54 22 -25 40 -55 40 -67 0 -12 9 -55 20
-96 30 -111 51 -287 52 -440 1 -74 5 -124 8 -110 6 24 7 23 13 -9 12 -58 8
-255 -8 -377 -18 -132 -38 -200 -100 -332 -104 -219 -234 -366 -400 -450 -95
-48 -338 -130 -398 -133 l-22 -2 23 -4 c12 -2 22 -8 22 -12 0 -13 -144 -102
-235 -146 -136 -64 -294 -119 -487 -169 -294 -76 -338 -79 -577 -30 -358 73
-732 209 -836 305 -56 51 -76 84 -48 76 10 -3 41 -8 68 -11 46 -5 47 -4 15 5
-427 124 -589 221 -755 453 -41 58 -125 228 -125 254 0 6 42 35 93 65 76 46
205 154 301 253 13 14 32 -30 122 -284 89 -251 129 -340 246 -536 l29 -49 -73
64 c-58 51 -66 56 -38 23 72 -85 268 -235 304 -234 6 1 -6 10 -27 21 -60 32
-151 126 -201 210 -91 152 -174 346 -206 483 l-9 39 67 -66 c37 -37 71 -67 75
-67 3 0 -7 20 -24 44 l-32 44 2 154 c2 118 5 158 17 176 17 25 95 64 154 77
50 10 50 10 34 62 -16 53 -17 66 -6 59 12 -7 73 -19 95 -18 16 1 22 -19 18
-55 -1 -9 18 -13 69 -13 38 0 70 -3 70 -6 0 -3 -14 -25 -31 -50 -109 -160
-122 -309 -39 -474 68 -135 156 -200 270 -200 40 0 55 6 98 40 69 55 102 124
109 227 l6 78 -35 17 c-36 17 -108 95 -108 117 0 19 44 12 94 -14 26 -14 51
-25 55 -25 11 0 -6 91 -19 104 -12 12 -13 26 -1 26 4 0 25 -11 45 -25 29 -19
35 -21 27 -7 -5 10 -24 30 -42 45 -18 15 -29 27 -25 27 5 0 -11 18 -35 40 -44
40 -44 40 -14 35 30 -5 30 -5 5 6 -158 75 -224 103 -289 126 -101 35 -107 40
-87 87 8 20 20 36 26 36 6 0 8 5 4 11 -3 6 -15 9 -25 6 -39 -10 -38 -6 57 289
36 111 70 208 77 217 11 14 16 14 52 -4 82 -40 87 -48 95 -140 12 -135 29
-223 75 -383 41 -142 134 -381 184 -471 33 -61 16 -6 -40 125 -121 288 -167
449 -184 645 -3 39 -8 92 -12 119 -5 44 -4 48 13 42 17 -6 17 -6 2 11 -13 15
-18 61 -26 248 -14 334 0 540 36 546 25 5 62 9 97 10 22 2 45 7 52 12 7 5 32
11 55 13 24 3 66 7 93 10 128 13 138 13 365 14 122 1 152 5 164 22 8 11 17 14
27 7 19 -12 29 -11 27 3 -6 27 176 34 193 7z m334 -29 c-6 -9 -9 -9 -16 1 -10
17 0 34 13 21 6 -6 7 -16 3 -22z m123 -31 c-2 -6 -8 -10 -13 -10 -5 0 -11 4
-13 10 -2 6 4 11 13 11 9 0 15 -5 13 -11z m57 -49 c3 -5 1 -10 -4 -10 -6 0
-11 5 -11 10 0 6 2 10 4 10 3 0 8 -4 11 -10z m-1667 -33 c24 9 15 -149 -14
-246 -26 -88 -116 -374 -118 -378 -1 -1 -30 7 -65 17 -87 28 -99 24 -21 -6 36
-14 68 -28 72 -32 4 -4 -10 -63 -32 -132 -56 -183 -97 -319 -110 -367 -6 -24
-15 -43 -20 -43 -14 0 -12 57 5 146 8 43 13 79 11 81 -6 6 -55 -208 -62 -273
l-7 -56 -56 7 c-69 9 -116 27 -129 52 -13 23 -38 176 -53 318 -13 120 -6 443
11 555 6 36 13 89 17 118 l6 53 96 46 c53 26 101 48 106 49 55 12 174 52 187
63 9 8 23 16 30 17 7 2 33 7 58 12 25 5 52 6 60 2 8 -4 21 -5 28 -3z m1622 -4
c0 -15 2 -16 10 -3 5 8 10 10 10 4 0 -18 -13 -24 -27 -13 -15 13 -17 29 -3 29
6 0 10 -8 10 -17z m103 -13 c3 -11 1 -18 -4 -14 -5 3 -9 12 -9 20 0 20 7 17
13 -6z m67 -56 c0 -8 -7 -14 -15 -14 -15 0 -21 21 -9 33 10 9 24 -2 24 -19z
m230 22 c0 -3 -4 -8 -10 -11 -5 -3 -10 -1 -10 4 0 6 5 11 10 11 6 0 10 -2 10
-4z m-2333 -12 c-3 -3 -12 -4 -19 -1 -8 3 -5 6 6 6 11 1 17 -2 13 -5z m-37 -8
c0 -3 -4 -8 -10 -11 -5 -3 -10 -1 -10 4 0 6 5 11 10 11 6 0 10 -2 10 -4z
m2410 -31 c-7 -8 -19 -15 -26 -15 -20 0 -17 27 4 39 23 13 39 -3 22 -24z m10
-71 c0 -17 -22 -14 -28 4 -2 7 3 12 12 12 9 0 16 -7 16 -16z m-2685 -126 c-4
-46 -16 -120 -26 -166 -11 -46 -16 -94 -13 -107 3 -14 -1 -38 -10 -56 -22 -45
-106 -476 -106 -546 0 -13 -7 -26 -15 -29 -11 -5 -12 -10 -5 -18 6 -9 3 -56
-10 -147 -11 -74 -23 -176 -26 -227 -4 -51 -9 -90 -11 -88 -3 2 -22 67 -43
144 -79 291 -107 620 -80 942 l10 115 59 56 c85 81 252 205 280 209 1 0 0 -37
-4 -82z m2820 -37 c3 -5 1 -12 -5 -16 -5 -3 -10 1 -10 9 0 18 6 21 15 7z
m-2198 -337 c-2 -3 -28 7 -56 21 -44 23 -51 30 -46 48 12 42 47 132 68 180
l22 48 8 -147 c5 -80 7 -148 4 -150z m1253 119 c0 -13 4 -23 10 -23 5 0 7 -7
4 -15 -4 -8 -2 -15 4 -15 9 0 52 -139 52 -167 0 -10 -128 -28 -137 -19 -3 2 3
44 12 93 32 178 37 197 46 182 5 -8 9 -24 9 -36z m1176 26 c3 -6 0 -15 -7 -20
-13 -7 -28 5 -29 24 0 11 28 8 36 -4z m-1062 -381 c15 -51 37 -123 48 -161 12
-37 18 -70 15 -73 -3 -3 -50 -12 -105 -20 -55 -8 -139 -28 -186 -43 -53 -18
-86 -24 -86 -17 0 6 22 78 49 161 28 82 55 169 61 192 11 46 15 47 131 51 l46
2 27 -92z m-2017 47 c-3 -19 -2 -35 4 -35 5 0 9 -14 9 -31 0 -29 35 -246 46
-281 4 -14 0 -15 -33 -8 -21 4 -59 11 -85 15 -54 7 -52 -13 -18 162 16 81 64
213 78 213 2 0 2 -16 -1 -35z m334 -391 c-6 -38 -23 -52 -29 -23 -4 22 16 71
26 65 5 -3 6 -22 3 -42z m-336 -54 l30 -11 -74 -35 c-40 -19 -75 -34 -77 -34
-9 0 -3 71 7 93 12 26 14 26 114 -13z m525 -184 c0 -3 -4 -8 -10 -11 -5 -3
-10 -1 -10 4 0 6 5 11 10 11 6 0 10 -2 10 -4z m-115 -135 c3 -5 1 -12 -5 -16
-5 -3 -10 1 -10 9 0 18 6 21 15 7z m1355 -145 c0 -26 -15 -43 -24 -28 -7 12 4
52 15 52 5 0 9 -11 9 -24z m-1360 5 c0 -18 -37 -54 -48 -47 -13 8 -16 39 -5
49 10 10 53 8 53 -2z m1303 -8 c9 -9 -13 -34 -24 -27 -14 8 -11 34 4 34 8 0
17 -3 20 -7z m-1238 -94 c8 -23 1 -34 -14 -24 -13 8 -15 45 -2 45 5 0 13 -9
16 -21z m1615 14 c0 -15 -41 -75 -47 -69 -3 3 1 14 10 24 10 10 17 26 17 35 0
9 5 17 10 17 6 0 10 -3 10 -7z m-356 -19 c10 -27 7 -44 -9 -44 -13 0 -14 -4
-4 -21 9 -17 8 -20 -2 -17 -15 5 -33 64 -25 84 7 19 32 18 40 -2z m176 6 c0
-5 -4 -10 -10 -10 -5 0 -10 5 -10 10 0 6 5 10 10 10 6 0 10 -4 10 -10z m-1520
-26 c0 -8 -4 -14 -10 -14 -5 0 -10 9 -10 21 0 11 5 17 10 14 6 -3 10 -13 10
-21z m230 2 c0 -3 -4 -8 -10 -11 -5 -3 -10 -1 -10 4 0 6 5 11 10 11 6 0 10 -2
10 -4z m86 -11 c-6 -18 -1 -19 25 -5 16 9 19 7 19 -9 0 -40 -10 -51 -36 -39
-34 16 -42 2 -16 -25 31 -33 28 -70 -8 -100 -16 -14 -35 -27 -42 -30 -7 -2
-10 -8 -6 -12 4 -4 14 -2 23 5 8 7 15 8 15 2 0 -19 -29 -21 -77 -7 -60 19 -95
45 -98 76 -4 33 -22 76 -34 84 -6 3 -11 13 -11 22 0 12 3 13 14 4 8 -7 22 -14
32 -16 11 -2 33 -9 51 -16 27 -11 37 -10 73 6 29 13 46 28 52 47 6 15 14 28
20 28 6 0 8 -7 4 -15z m1131 -21 c20 -22 29 -25 61 -19 20 3 47 17 60 31 29
31 36 30 28 -1 -4 -15 -2 -25 4 -25 6 0 9 -4 5 -9 -3 -6 1 -14 10 -18 21 -12
10 -65 -21 -94 -17 -16 -40 -24 -79 -27 -53 -4 -57 -3 -90 32 -19 21 -35 44
-35 52 0 8 -4 14 -10 14 -5 0 -10 10 -9 23 0 12 -3 35 -7 50 -6 27 -5 28 27
22 18 -3 43 -17 56 -31z m-1426 -20 c5 -15 7 -29 4 -32 -7 -7 -34 29 -35 46 0
22 20 13 31 -14z m-703 -458 c40 -26 114 -67 165 -90 104 -49 100 -43 155
-201 75 -211 181 -397 266 -469 26 -21 45 -40 43 -43 -10 -9 -247 161 -308
220 -179 174 -333 385 -444 607 l-57 115 53 -46 c30 -26 87 -67 127 -93z
m2450 -443 c-2 -38 -8 -57 -16 -56 -6 2 -9 -4 -5 -13 5 -13 7 -13 14 -2 6 9 9
2 9 -19 0 -18 -5 -33 -11 -33 -6 0 -9 7 -5 15 3 9 0 15 -8 15 -8 0 -19 24 -28
59 l-15 59 31 15 c17 9 32 16 34 16 2 1 2 -25 0 -56z m93 -64 c-6 -24 -9 -28
-10 -12 -1 24 9 56 16 50 2 -3 0 -20 -6 -38z m-32 -13 c-6 -21 -12 -36 -14
-34 -3 2 0 21 6 42 6 21 12 36 14 34 3 -2 0 -21 -6 -42z m-1811 -190 c3 -6
-29 18 -71 53 -43 36 -81 69 -85 75 -3 6 29 -18 71 -53 43 -36 81 -69 85 -75z
m1775 84 c-3 -12 -8 -19 -11 -16 -5 6 5 36 12 36 2 0 2 -9 -1 -20z m-850 -67
c-18 -6 -16 -23 1 -23 16 0 31 -53 21 -70 -4 -6 -14 -9 -22 -5 -13 4 -15 -2
-10 -37 l6 -43 -41 3 c-31 3 -39 1 -33 -8 5 -9 4 -11 -3 -6 -7 4 -12 18 -12
32 0 14 -6 24 -14 24 -12 0 -23 33 -32 97 -3 25 5 29 71 32 27 1 51 4 54 7 2
2 9 4 15 3 6 0 5 -3 -1 -6z m1513 -3 c25 0 106 -97 142 -169 l37 -75 -1 -206
c-1 -231 -11 -326 -34 -323 -8 0 -60 11 -115 23 -203 45 -369 39 -598 -22 -43
-11 -80 -18 -83 -15 -3 3 20 54 52 113 31 59 61 127 65 151 8 42 29 73 234
339 99 130 204 203 270 189 11 -3 25 -5 31 -5z m-2927 -59 c86 -44 331 -337
444 -531 120 -207 267 -523 234 -503 -7 4 -37 27 -67 53 -143 118 -256 190
-362 230 -33 12 -82 46 -128 86 -41 37 -88 74 -103 84 -16 10 -70 55 -120 101
-67 61 -80 70 -48 34 24 -28 49 -54 55 -60 31 -28 166 -186 166 -195 0 -6 -10
-15 -22 -20 -20 -8 -18 -9 14 -9 35 -1 39 -5 91 -89 72 -117 169 -255 224
-320 47 -55 320 -302 498 -451 55 -47 121 -106 146 -132 46 -46 118 -173 106
-185 -6 -7 -72 4 -237 37 -52 10 -108 21 -125 24 -119 20 -169 34 -320 90
-164 61 -285 98 -293 90 -2 -2 17 -12 42 -24 25 -11 46 -24 46 -29 0 -4 35
-16 78 -26 149 -34 292 -85 414 -147 68 -34 141 -71 163 -82 81 -40 298 -190
365 -254 101 -95 114 -118 108 -206 -6 -87 -29 -141 -68 -157 -27 -11 -32 -9
-97 45 -87 72 -220 139 -320 160 -43 10 -81 19 -85 22 -4 2 1 20 12 39 22 42
17 62 -17 75 -72 27 -124 1 -232 -117 -70 -76 -119 -145 -174 -245 -40 -72
-67 -91 -199 -143 -80 -31 -119 -33 -143 -6 -15 16 -17 32 -13 94 l5 75 -37
36 c-21 20 -49 60 -64 89 -53 104 -76 325 -56 532 12 129 12 129 -14 197 -14
37 -26 72 -26 77 0 5 21 -4 48 -20 44 -28 55 -30 172 -34 l125 -5 -95 19
c-128 24 -147 34 -155 79 -12 74 56 345 118 470 36 72 42 93 40 142 -3 120
-69 295 -119 318 -48 22 -131 10 -250 -36 l-51 -20 -7 75 c-22 262 12 534 74
592 50 47 139 88 213 99 4 0 25 -8 46 -18z m461 -61 c8 -5 11 -10 5 -10 -5 0
-17 5 -25 10 -8 5 -10 10 -5 10 6 0 17 -5 25 -10z m1694 -87 c-29 -215 -64
-375 -116 -528 -24 -69 -31 -76 -71 -68 -16 3 -32 1 -36 -4 -11 -18 -133 -103
-147 -103 -19 0 -18 -10 3 -25 14 -11 15 -16 4 -43 -17 -42 -16 -94 2 -123 31
-48 26 -62 -20 -66 -40 -3 -43 -1 -43 21 0 34 -44 68 -79 60 -33 -7 -85 -64
-97 -106 -8 -27 -16 -34 -46 -39 l-36 -6 -7 44 c-7 48 -14 51 -75 27 -66 -27
-77 -79 -19 -91 32 -6 35 -13 17 -31 -14 -14 -94 -16 -103 -2 -9 14 -36 13
-32 -1 3 -16 -90 -22 -100 -6 -4 7 -8 84 -8 172 0 202 -2 205 -91 205 -58 0
-66 -2 -73 -22 -8 -21 -9 -19 -16 17 -3 22 -12 71 -20 110 -7 38 -13 71 -12
72 1 0 36 -7 77 -18 41 -10 98 -21 125 -24 45 -5 42 -3 -25 15 -113 30 -190
61 -190 75 0 8 -2 20 -5 28 -5 11 7 10 66 -5 141 -35 232 -41 365 -24 67 9
152 26 190 38 38 12 76 22 84 21 8 -1 23 4 35 10 11 6 22 12 25 12 3 1 25 11
50 23 25 12 51 22 58 22 6 0 12 5 12 11 0 5 5 7 10 4 6 -3 10 -1 10 5 0 6 5 8
10 5 6 -3 10 -2 10 4 0 5 13 12 30 16 17 4 45 24 66 48 37 43 118 203 150 294
10 28 22 49 26 47 5 -3 15 2 24 10 8 9 19 16 23 16 4 0 2 -44 -5 -97z m-1640
68 c4 -5 -3 -7 -14 -4 -23 6 -26 13 -6 13 8 0 17 -4 20 -9z m-16 -318 c22 -49
53 -116 69 -151 l28 -62 0 94 c0 77 3 99 17 113 17 16 21 13 90 -58 l73 -74
54 -159 c57 -171 78 -253 87 -356 3 -36 8 -72 11 -80 9 -24 9 -59 1 -54 -4 3
-35 53 -69 112 -95 169 -163 276 -166 266 -2 -6 21 -82 51 -169 30 -88 53
-161 51 -163 -5 -5 -87 150 -173 328 -68 140 -143 340 -166 442 -3 14 -9 33
-12 42 -3 9 -2 16 3 16 5 0 28 -39 51 -87z m1916 75 c-4 -7 -21 -33 -38 -58
-17 -25 -49 -81 -72 -125 -166 -321 -234 -459 -231 -468 3 -9 -115 -129 -121
-122 -4 4 74 277 131 455 l42 135 85 57 c87 58 109 67 111 46 1 -7 4 -2 8 12
4 13 25 37 46 52 46 31 49 33 39 16z m-1318 -83 c14 -52 32 -56 36 -9 3 39 14
49 36 36 9 -7 9 -18 -4 -56 -14 -42 -19 -47 -43 -44 -28 3 -44 28 -56 87 -10
48 17 36 31 -14z m357 -32 c-15 -58 -33 -92 -33 -61 0 13 -59 68 -74 68 -2 0
-7 -13 -11 -29 -7 -35 -35 -51 -35 -20 0 11 -4 17 -10 14 -5 -3 -10 -1 -10 6
0 14 -30 38 -47 39 -7 0 -13 -9 -13 -21 0 -14 5 -19 14 -16 20 8 43 -20 29
-34 -28 -28 -88 35 -66 69 7 11 23 17 47 16 20 -1 36 3 36 8 0 5 5 6 12 2 6
-4 25 -7 42 -6 24 1 36 -6 51 -28 22 -33 30 -31 50 16 22 54 33 40 18 -23z
m1357 -243 c96 -12 258 -48 264 -59 9 -14 -81 -412 -100 -443 -3 -4 -14 -8
-25 -8 -32 0 -226 -106 -389 -215 -85 -56 -191 -117 -235 -135 -112 -45 -253
-117 -370 -189 -54 -34 -103 -61 -109 -61 -13 0 0 105 24 181 13 43 46 104 93
175 127 189 169 302 214 588 7 40 13 52 38 66 47 26 151 58 260 80 161 31 214
35 335 20z m-2829 -36 c32 -29 57 -85 79 -176 36 -149 27 -188 -58 -271 l-49
-48 1 52 c1 48 -2 54 -38 85 -44 38 -54 40 -81 20 -17 -12 -17 -13 8 -20 34
-8 35 -33 2 -48 -33 -15 -34 -48 0 -48 33 0 47 -46 20 -67 -11 -7 -25 -13 -32
-13 -17 0 -16 -15 2 -30 23 -19 18 -35 -20 -64 l-35 -27 -10 26 c-6 15 -10 41
-10 59 0 17 -4 36 -9 42 -9 9 -55 270 -66 379 -3 33 -8 69 -10 80 -3 17 7 25
63 47 130 53 202 59 243 22z m310 -68 c125 -51 323 -207 412 -325 67 -88 111
-167 103 -187 -3 -8 -26 -24 -52 -36 l-46 -23 -25 30 c-13 17 -56 71 -94 122
-38 50 -128 152 -199 226 -209 215 -225 245 -99 193z m1683 -81 c-4 -8 -10
-12 -15 -9 -5 3 -12 -2 -15 -10 -3 -9 -11 -16 -18 -16 -6 0 2 12 17 25 33 29
39 31 31 10z m-954 -51 c0 -8 -4 -13 -9 -10 -5 4 -11 0 -14 -6 -3 -7 -4 -3 -4
10 1 25 27 31 27 6z m904 10 c27 -10 18 -41 -21 -72 -36 -29 -37 -31 -23 -58
8 -16 16 -32 18 -36 2 -5 -4 -8 -12 -8 -20 0 -36 39 -36 83 0 21 10 44 28 65
15 17 28 32 29 32 1 0 8 -3 17 -6z m-239 -154 c11 -17 -5 -49 -35 -70 -26 -19
-30 -19 -45 -4 -16 16 -13 46 7 72 12 14 64 16 73 2z m225 -79 c0 -6 -4 -13
-10 -16 -5 -3 -10 -17 -10 -30 0 -13 -4 -27 -10 -30 -5 -3 -10 1 -10 9 0 26
-15 18 -33 -16 -10 -18 -15 -24 -12 -13 2 11 7 35 10 54 3 19 8 38 11 43 7 11
64 10 64 -1z m-280 -62 c4 -27 9 -33 25 -31 23 3 83 4 106 1 8 -2 15 -12 15
-25 0 -19 -4 -22 -22 -18 -17 4 -28 -2 -46 -28 -35 -47 -54 -98 -40 -107 8 -5
6 -15 -6 -33 -34 -53 -77 -107 -87 -111 -21 -8 -72 14 -109 48 -21 19 -43 35
-48 35 -6 0 -7 7 -4 16 3 8 1 25 -5 36 -11 21 -3 41 9 21 4 -6 23 -20 42 -32
84 -50 162 1 114 74 -19 29 -48 32 -101 10 -49 -21 -63 -19 -63 9 0 19 12 28
71 55 40 17 77 31 84 31 9 0 12 11 8 40 -3 21 -3 47 1 56 10 27 50 -6 56 -47z
m-1710 -51 c0 -2 -23 -55 -50 -118 -27 -63 -50 -124 -50 -135 0 -31 -16 -5
-29 47 -15 63 -14 78 4 78 18 0 61 46 71 75 7 22 34 53 47 54 4 1 7 0 7 -1z
m1891 -35 c-12 -20 -14 -14 -5 12 4 9 9 14 11 11 3 -2 0 -13 -6 -23z m52 -43
c10 -37 -3 -61 -31 -58 -24 3 -27 -2 -40 -55 -8 -32 -17 -56 -19 -53 -10 10
20 111 44 149 26 42 38 46 46 17z m-123 -50 c-19 -16 -36 -27 -38 -26 -7 8 11
33 36 48 40 25 42 10 2 -22z m-370 -129 c3 -1 11 -10 18 -21 10 -16 10 -20 -1
-20 -8 0 -19 10 -25 23 -9 18 -11 19 -11 4 -1 -10 6 -28 14 -41 14 -20 14 -25
1 -35 -8 -7 -18 -25 -21 -41 -5 -21 -14 -29 -38 -35 -70 -14 -116 -16 -136 -6
-16 9 -21 9 -21 0 0 -7 -2 -10 -4 -8 -2 2 -4 6 -3 9 0 3 -11 25 -25 50 -13 25
-23 51 -20 58 8 26 75 42 180 45 50 1 67 10 40 20 -10 4 14 3 52 -2z m407 -89
c8 -5 7 -20 -7 -58 -32 -92 -42 -98 -35 -20 7 87 13 97 42 78z m-1917 -1276
c0 -3 -4 -8 -10 -11 -5 -3 -10 -1 -10 4 0 6 5 11 10 11 6 0 10 -2 10 -4z"/>
<path d="M6420 7520 c0 -5 5 -10 11 -10 5 0 7 5 4 10 -3 6 -8 10 -11 10 -2 0
-4 -4 -4 -10z"/>
<path d="M6900 7250 c0 -5 5 -10 11 -10 5 0 7 5 4 10 -3 6 -8 10 -11 10 -2 0
-4 -4 -4 -10z"/>
<path d="M6843 7175 c0 -22 2 -30 4 -17 2 12 2 30 0 40 -3 9 -5 -1 -4 -23z"/>
<path d="M6752 6820 c0 -14 2 -19 5 -12 2 6 2 18 0 25 -3 6 -5 1 -5 -13z"/>
<path d="M6762 6770 c0 -14 2 -19 5 -12 2 6 2 18 0 25 -3 6 -5 1 -5 -13z"/>
<path d="M6772 6720 c-1 -14 3 -43 7 -65 6 -26 9 -31 9 -15 1 14 -3 43 -7 65
-6 26 -9 31 -9 15z"/>
<path d="M5023 6605 c0 -27 2 -38 4 -22 2 15 2 37 0 50 -2 12 -4 0 -4 -28z"/>
<path d="M6796 6555 c2 -33 7 -117 11 -187 5 -106 4 -128 -8 -128 -8 0 -49 7
-92 15 -43 8 -80 15 -82 15 -2 0 12 -38 30 -85 19 -47 30 -87 26 -89 -13 -9
-66 56 -106 128 -20 38 -51 88 -67 112 -16 24 -42 71 -59 106 -31 66 -31 63
-8 -59 9 -49 9 -66 -1 -78 -9 -10 -10 -34 -6 -79 l7 -64 57 -6 c92 -10 114
-30 151 -131 17 -47 31 -93 31 -101 0 -7 6 -14 14 -14 11 0 13 -7 7 -27 -8
-25 -55 -134 -69 -157 -3 -5 -1 -6 5 -3 5 3 33 53 62 112 36 70 52 113 49 130
-3 13 -2 26 1 27 4 2 16 17 28 33 20 29 38 116 63 308 13 104 11 163 -3 77
l-11 -65 -8 85 c-4 47 -12 108 -17 135 l-10 50 5 -60z m-301 -235 c3 -5 1 -10
-4 -10 -6 0 -11 5 -11 10 0 6 2 10 4 10 3 0 8 -4 11 -10z"/>
<path d="M6853 6560 c0 -30 2 -43 4 -27 2 15 2 39 0 55 -2 15 -4 2 -4 -28z"/>
<path d="M5031 6534 c0 -11 3 -14 6 -6 3 7 2 16 -1 19 -3 4 -6 -2 -5 -13z"/>
<path d="M5033 6465 c0 -27 2 -38 4 -22 2 15 2 37 0 50 -2 12 -4 0 -4 -28z"/>
<path d="M5041 6384 c-2 -40 29 -195 53 -264 31 -87 51 -130 99 -209 23 -38
36 -70 32 -80 -5 -12 -3 -13 5 -5 9 9 29 -6 81 -60 37 -39 69 -68 69 -65 0 3
-26 32 -57 65 -137 143 -226 325 -263 535 -10 57 -18 94 -19 83z"/>
<path d="M4785 6291 c28 -10 69 -28 92 -40 49 -25 67 -28 36 -6 -26 18 -148
65 -166 64 -6 0 11 -8 38 -18z"/>
<path d="M5211 6110 c0 -14 7 -41 14 -60 18 -46 18 -28 0 35 -8 29 -14 39 -14
25z"/>
<path d="M7230 5977 c-182 -196 -423 -360 -664 -453 -34 -12 -56 -23 -50 -24
21 -1 118 32 191 66 l75 34 -6 -48 c-14 -95 -67 -279 -101 -349 -27 -54 -54
-89 -115 -146 -44 -42 -104 -87 -133 -101 -52 -25 -52 -25 -18 -26 19 0 42 8
55 19 11 11 55 49 96 84 81 69 127 121 234 262 38 50 73 96 79 103 5 6 7 12 5
12 -3 0 -42 -47 -87 -105 -45 -58 -84 -105 -86 -105 -1 0 5 23 16 50 21 56 79
289 79 319 0 38 13 52 104 107 50 31 108 70 130 87 l38 31 -7 -35 c-10 -52
-88 -206 -140 -279 l-46 -65 50 55 c65 72 124 177 151 270 20 68 29 82 99 155
73 76 127 143 119 149 -1 2 -32 -28 -68 -67z"/>
<path d="M5416 4889 c-14 -11 -26 -29 -26 -40 0 -26 18 -24 22 3 2 14 13 24
32 29 38 10 70 -6 63 -32 -3 -12 0 -19 9 -19 22 0 16 28 -11 55 -30 30 -54 31
-89 4z"/>
<path d="M4538 6963 c7 -3 16 -2 19 1 4 3 -2 6 -13 5 -11 0 -14 -3 -6 -6z"/>
<path d="M4181 6954 c0 -11 3 -14 6 -6 3 7 2 16 -1 19 -3 4 -6 -2 -5 -13z"/>
<path d="M4827 2409 c-137 -20 -304 -89 -373 -155 -27 -24 -34 -39 -34 -68 0
-47 9 -47 181 3 236 68 322 80 435 61 32 -6 71 -12 87 -15 21 -3 27 -1 27 14
0 22 -103 137 -141 156 -30 16 -91 17 -182 4z"/>
<path d="M5979 3902 c-13 -9 -78 -45 -144 -80 -66 -35 -112 -61 -102 -58 11 3
31 9 45 12 36 9 207 101 223 120 18 22 6 26 -22 6z"/>
<path d="M5515 3689 c-16 -6 -59 -14 -95 -18 -58 -8 -60 -8 -20 -10 42 -1 145
21 158 33 7 8 -7 6 -43 -5z"/>
<path d="M5311 3496 c-16 -19 -33 -171 -26 -220 4 -23 18 -53 33 -68 25 -27
52 -37 52 -19 0 5 31 32 69 60 85 64 144 129 135 150 -3 9 -11 28 -16 44 -5
15 -17 27 -26 27 -10 0 -43 -28 -75 -62 -45 -49 -57 -57 -52 -38 3 14 9 44 12
67 5 42 5 43 -30 58 -45 19 -61 19 -76 1z"/>
<path d="M5410 3975 c0 -5 5 -17 10 -25 5 -8 10 -10 10 -5 0 6 -5 17 -10 25
-5 8 -10 11 -10 5z"/>
<path d="M4036 3459 c-9 -28 -21 -58 -28 -67 -11 -12 -4 -23 43 -66 31 -28 59
-60 61 -71 4 -17 8 -14 21 17 22 48 22 50 -8 82 l-25 27 20 26 c11 14 20 34
20 44 0 25 -39 59 -66 59 -19 0 -26 -9 -38 -51z m72 3 c4 -26 -13 -52 -35 -52
-18 0 -27 24 -19 56 9 33 49 30 54 -4z"/>
<path d="M3897 3223 c-4 -3 -7 -15 -7 -25 0 -26 24 -17 28 10 3 21 -8 29 -21
15z"/>
<path d="M5744 3112 c-17 -11 -24 -52 -9 -52 7 0 15 12 18 28 6 31 5 33 -9 24z"/>
<path d="M5680 2849 c0 -5 5 -7 10 -4 6 3 10 8 10 11 0 2 -4 4 -10 4 -5 0 -10
-5 -10 -11z"/>
<path d="M7517 8483 c-4 -3 -7 -11 -7 -17 0 -6 5 -5 12 2 6 6 9 14 7 17 -3 3
-9 2 -12 -2z"/>
<path d="M6048 8383 c7 -3 16 -2 19 1 4 3 -2 6 -13 5 -11 0 -14 -3 -6 -6z"/>
<path d="M7487 8163 c-4 -3 -7 -11 -7 -17 0 -6 5 -5 12 2 6 6 9 14 7 17 -3 3
-9 2 -12 -2z"/>
<path d="M3360 6949 c0 -5 5 -7 10 -4 6 3 10 8 10 11 0 2 -4 4 -10 4 -5 0 -10
-5 -10 -11z"/>
<path d="M3345 6850 c3 -5 8 -10 11 -10 2 0 4 5 4 10 0 6 -5 10 -11 10 -5 0
-7 -4 -4 -10z"/>
<path d="M3340 6815 c0 -5 5 -17 10 -25 5 -8 10 -10 10 -5 0 6 -5 17 -10 25
-5 8 -10 11 -10 5z"/>
<path d="M3351 6753 c0 -12 4 -25 9 -28 8 -5 7 -12 -2 -22 -12 -15 -11 -15 9
-3 17 11 19 16 8 24 -7 6 -15 20 -18 31 -4 18 -5 18 -6 -2z"/>
<path d="M3441 6754 c0 -11 3 -14 6 -6 3 7 2 16 -1 19 -3 4 -6 -2 -5 -13z"/>
<path d="M7645 6730 c-3 -5 -1 -10 4 -10 6 0 11 5 11 10 0 6 -2 10 -4 10 -3 0
-8 -4 -11 -10z"/>
<path d="M3361 6674 c-7 -8 -10 -18 -6 -22 3 -3 10 -1 14 6 5 8 15 10 27 5 18
-6 18 -6 2 10 -20 20 -19 20 -37 1z"/>
<path d="M7673 6653 c9 -2 14 -9 11 -15 -4 -7 -2 -8 5 -4 15 10 4 26 -17 25
-15 -1 -15 -2 1 -6z"/>
<path d="M7675 6590 c3 -5 10 -10 16 -10 5 0 9 5 9 10 0 6 -7 10 -16 10 -8 0
-12 -4 -9 -10z"/>
<path d="M7761 6511 c4 -30 6 -57 3 -60 -2 -2 -4 1 -4 7 0 7 -4 12 -10 12 -5
0 -10 -7 -10 -15 0 -8 6 -15 14 -15 7 0 19 -7 26 -15 11 -14 15 -12 28 15 20
42 1 116 -32 122 -21 4 -22 3 -15 -51z m29 -2 c0 -16 -4 -29 -10 -29 -5 0 -10
16 -10 36 0 21 4 33 10 29 6 -3 10 -19 10 -36z m10 -54 c0 -8 -4 -15 -10 -15
-5 0 -10 7 -10 15 0 8 5 15 10 15 6 0 10 -7 10 -15z"/>
<path d="M7648 6548 c9 -9 15 -9 24 0 9 9 7 12 -12 12 -19 0 -21 -3 -12 -12z"/>
<path d="M3389 6524 c-13 -14 -17 -23 -9 -19 13 5 46 45 37 45 -2 0 -14 -11
-28 -26z"/>
<path d="M7660 6520 c0 -5 5 -10 10 -10 6 0 10 5 10 10 0 6 -4 10 -10 10 -5 0
-10 -4 -10 -10z"/>
<path d="M7450 6469 c7 -11 14 -19 16 -16 7 7 -7 37 -17 37 -6 0 -5 -9 1 -21z"/>
<path d="M7676 6481 c-8 -12 3 -41 15 -41 14 0 11 30 -3 31 -7 0 -4 4 7 9 16
7 17 9 3 9 -9 1 -19 -3 -22 -8z"/>
<path d="M3285 6469 c-11 -16 -1 -19 13 -3 7 8 8 14 3 14 -5 0 -13 -5 -16 -11z"/>
<path d="M3343 6468 c-5 -7 -22 -31 -38 -53 l-28 -40 32 35 c46 51 54 61 48
66 -2 2 -9 -1 -14 -8z"/>
<path d="M3296 6444 c-5 -14 -4 -15 9 -4 17 14 19 20 6 20 -5 0 -12 -7 -15
-16z"/>
<path d="M3376 6415 c-9 -26 -7 -32 5 -12 6 10 9 21 6 23 -2 3 -7 -2 -11 -11z"/>
<path d="M7501 6414 c0 -11 3 -14 6 -6 3 7 2 16 -1 19 -3 4 -6 -2 -5 -13z"/>
<path d="M7590 6410 c0 -5 5 -10 11 -10 5 0 7 5 4 10 -3 6 -8 10 -11 10 -2 0
-4 -4 -4 -10z"/>
<path d="M3257 6363 c-4 -3 -7 -11 -7 -17 0 -6 5 -5 12 2 6 6 9 14 7 17 -3 3
-9 2 -12 -2z"/>
<path d="M7596 6351 c-4 -7 -5 -15 -2 -18 9 -9 19 4 14 18 -4 11 -6 11 -12 0z"/>
<path d="M7722 6348 c6 -18 28 -21 28 -4 0 9 -7 16 -16 16 -9 0 -14 -5 -12
-12z"/>
<path d="M7548 6323 c7 -3 16 -2 19 1 4 3 -2 6 -13 5 -11 0 -14 -3 -6 -6z"/>
<path d="M7520 6172 c0 -6 5 -14 11 -17 6 -4 8 -14 5 -22 -3 -8 -1 -11 4 -8
15 9 12 31 -5 45 -9 8 -15 9 -15 2z"/>
<path d="M8189 6132 c-24 -26 -51 -59 -60 -72 -16 -25 -41 -53 -102 -117 -40
-43 -29 -52 20 -16 201 147 258 214 204 242 -15 9 -26 2 -62 -37z"/>
<path d="M8166 6145 c-16 -12 -17 -15 -4 -15 8 0 21 7 28 15 16 19 1 19 -24 0z"/>
<path d="M7474 6135 c11 -8 26 -15 33 -15 22 0 14 8 -19 19 -30 10 -31 9 -14
-4z"/>
<path d="M7607 5965 c-10 -7 -14 -16 -9 -19 5 -3 15 1 22 9 17 21 9 27 -13 10z"/>
<path d="M7566 5889 c-11 -54 -13 -80 -6 -84 4 -2 10 19 13 47 7 54 2 79 -7
37z"/>
<path d="M7905 5840 c-3 -6 1 -7 9 -4 18 7 21 14 7 14 -6 0 -13 -4 -16 -10z"/>
<path d="M7880 5620 c0 -12 -65 -40 -91 -40 -11 0 -19 -4 -19 -9 0 -15 92 -17
144 -4 52 13 68 27 59 50 -6 15 -93 19 -93 3z"/>
<path d="M7580 5591 c0 -5 5 -13 10 -16 6 -3 10 -2 10 4 0 5 -4 13 -10 16 -5
3 -10 2 -10 -4z"/>
<path d="M7386 5561 c-4 -5 -2 -12 3 -15 5 -4 12 -2 15 3 4 5 2 12 -3 15 -5 4
-12 2 -15 -3z"/>
<path d="M7350 5416 c0 -8 5 -18 12 -22 7 -5 9 -2 5 9 -4 10 0 17 11 20 12 3
11 5 -5 6 -14 1 -23 -5 -23 -13z"/>
<path d="M7307 5233 c-4 -3 -7 -11 -7 -17 0 -6 5 -5 12 2 6 6 9 14 7 17 -3 3
-9 2 -12 -2z"/>
<path d="M7281 5204 c0 -11 3 -14 6 -6 3 7 2 16 -1 19 -3 4 -6 -2 -5 -13z"/>
<path d="M7240 5171 c0 -5 5 -13 10 -16 6 -3 10 -2 10 4 0 5 -4 13 -10 16 -5
3 -10 2 -10 -4z"/>
<path d="M3498 5118 c18 -26 43 -50 55 -52 12 -3 33 -7 47 -9 14 -2 34 -8 45
-12 36 -14 3 12 -60 47 -33 19 -73 43 -90 54 l-29 19 32 -47z"/>
<path d="M6906 4769 c-48 -50 -86 -92 -84 -94 6 -7 91 53 111 77 31 39 69 100
64 104 -2 2 -43 -37 -91 -87z"/>
<path d="M8330 2118 c0 -18 18 -34 28 -24 3 4 -2 14 -11 23 -16 16 -17 16 -17
1z"/>
<path d="M7337 2025 c-9 -9 -18 -30 -21 -48 -9 -54 -16 -223 -9 -207 3 8 16
22 27 31 17 14 19 20 9 30 -18 18 -16 58 2 65 11 5 12 11 5 24 -6 11 -6 36 -1
67 11 55 9 60 -12 38z"/>
<path d="M8370 2026 c0 -8 5 -18 10 -21 6 -3 10 3 10 14 0 12 -4 21 -10 21 -5
0 -10 -6 -10 -14z"/>
<path d="M8410 1891 c0 -6 5 -13 10 -16 6 -3 10 1 10 9 0 9 -4 16 -10 16 -5 0
-10 -4 -10 -9z"/>
<path d="M7295 1706 c-5 -33 -2 -55 13 -90 12 -25 26 -46 31 -46 14 0 14 27 1
32 -6 2 -13 34 -17 71 -7 80 -19 94 -28 33z"/>
<path d="M8420 1721 c0 -29 15 -33 18 -5 1 13 -3 24 -8 24 -6 0 -10 -9 -10
-19z"/>
<path d="M8410 1625 c-7 -8 -9 -15 -5 -15 4 0 3 -6 -2 -12 -13 -16 -15 -80 -3
-73 5 3 7 15 5 27 -3 12 -1 25 4 28 8 5 24 60 17 60 -2 0 -9 -7 -16 -15z"/>
<path d="M7350 1526 c0 -9 5 -16 10 -16 6 0 10 4 10 9 0 6 -4 13 -10 16 -5 3
-10 -1 -10 -9z"/>
<path d="M7361 1474 c0 -11 3 -14 6 -6 3 7 2 16 -1 19 -3 4 -6 -2 -5 -13z"/>
<path d="M8286 1465 c-6 -18 2 -45 15 -45 5 0 9 3 9 8 0 4 3 17 6 30 7 25 -20
32 -30 7z"/>
<path d="M7370 1444 c0 -12 37 -54 47 -54 4 0 -4 12 -18 28 -13 15 -25 29 -26
31 -2 2 -3 0 -3 -5z"/>
<path d="M5780 1433 c0 -5 6 -35 14 -68 7 -33 13 -68 13 -79 0 -16 -3 -15 -19
5 -11 13 -28 38 -39 54 -10 17 -19 23 -19 15 0 -21 78 -133 137 -198 41 -45
55 -53 93 -58 l45 -6 0 156 c0 156 0 157 -23 163 -38 9 -46 -10 -22 -56 18
-36 20 -56 18 -144 l-3 -102 -25 3 c-14 1 -38 15 -53 31 -27 27 -31 36 -88
254 -5 20 -14 37 -19 37 -6 0 -10 -3 -10 -7z"/>
<path d="M5269 1403 c-6 -16 -19 -68 -30 -118 -10 -49 -26 -105 -34 -124 -19
-40 -15 -48 10 -21 10 11 23 20 29 20 6 0 12 24 13 58 2 50 23 134 48 195 5
12 2 17 -9 17 -9 0 -21 -12 -27 -27z"/>
<path d="M2750 1390 c6 -12 22 -26 36 -32 13 -6 27 -21 30 -34 3 -12 18 -33
32 -47 27 -25 119 -67 147 -67 24 0 17 19 -9 26 -14 3 -27 12 -30 20 -3 8 -19
14 -36 14 -47 0 -69 17 -90 66 -13 30 -25 44 -39 44 -10 0 -21 7 -25 15 -3 8
-10 15 -16 15 -7 0 -7 -6 0 -20z"/>
<path d="M5078 1403 c-23 -6 -29 -26 -17 -65 5 -18 9 -79 9 -135 l0 -103 -42
0 -43 0 -32 83 c-18 45 -38 106 -45 135 -15 61 -28 68 -28 14 0 -22 14 -67 35
-111 36 -76 44 -116 23 -124 -19 -8 121 -8 167 0 35 6 37 7 15 13 -25 6 -25 8
-28 114 -2 84 1 114 13 132 28 43 19 59 -27 47z"/>
<path d="M8270 1400 c0 -5 5 -10 10 -10 6 0 10 5 10 10 0 6 -4 10 -10 10 -5 0
-10 -4 -10 -10z"/>
<path d="M7454 1389 c-7 -13 15 -41 27 -33 5 3 9 0 9 -7 0 -10 3 -10 11 -2 7
7 9 18 6 26 -7 17 -45 29 -53 16z"/>
<path d="M8215 1370 c-3 -5 1 -10 10 -10 9 0 13 5 10 10 -3 6 -8 10 -10 10 -2
0 -7 -4 -10 -10z"/>
<path d="M6160 1347 c0 -13 -16 -73 -35 -133 -19 -60 -35 -110 -35 -111 0 -2
14 -3 32 -3 29 0 30 1 13 14 -18 13 -17 17 19 124 21 62 35 116 31 122 -11 18
-25 11 -25 -13z"/>
<path d="M7500 1323 c0 -4 5 -15 10 -23 8 -13 10 -13 10 2 0 9 -4 20 -10 23
-5 3 -10 3 -10 -2z"/>
<path d="M8157 1285 c-17 -16 -40 -25 -60 -25 -21 0 -38 -7 -47 -20 -8 -11
-22 -20 -32 -20 -9 0 -20 -4 -23 -10 -10 -15 15 -12 59 9 58 27 79 35 93 36
14 0 53 35 53 47 0 14 -14 8 -43 -17z"/>
<path d="M3654 1264 c-18 -14 -18 -15 4 -4 12 6 22 13 22 15 0 8 -5 6 -26 -11z"/>
<path d="M6300 1260 c0 -13 -79 -120 -89 -120 -3 0 -16 -8 -28 -18 l-23 -17
33 0 c34 0 47 12 100 88 27 40 36 77 17 77 -5 0 -10 -5 -10 -10z"/>
<path d="M4710 1254 c0 -12 24 -51 57 -91 l33 -42 -52 -4 c-51 -3 -50 -3 14
-5 36 -1 75 -5 85 -8 11 -4 1 11 -23 37 -23 24 -53 61 -69 82 -24 33 -45 47
-45 31z"/>
<path d="M7570 1251 c0 -5 12 -12 27 -16 15 -3 47 -16 72 -27 25 -11 61 -20
80 -19 64 2 227 17 200 19 -15 1 -30 9 -33 17 -4 13 -10 14 -26 5 -13 -7 -20
-7 -20 0 0 13 -37 13 -46 -1 -3 -6 -20 -17 -38 -24 -34 -15 -60 -7 -86 26 -11
14 -32 20 -73 24 -31 2 -57 0 -57 -4z"/>
<path d="M5646 1223 c5 -18 42 -48 50 -40 2 2 -9 16 -26 32 -23 22 -28 24 -24
8z"/>
<path d="M3466 1198 c-16 -22 -16 -23 5 -26 18 -3 134 36 127 43 -2 2 -24 0
-50 -4 -26 -5 -51 -4 -56 1 -6 6 -16 1 -26 -14z"/>
<path d="M3330 1182 c0 -16 -45 -29 -77 -22 -17 4 -37 4 -43 0 -25 -15 95 -20
145 -5 28 7 40 14 28 14 -13 1 -23 6 -23 11 0 6 -7 10 -15 10 -8 0 -15 -4 -15
-8z"/>
<path d="M3120 1160 c0 -16 7 -20 32 -20 30 0 31 0 13 20 -10 11 -24 20 -32
20 -7 0 -13 -9 -13 -20z"/>
<path d="M6411 1139 c-13 -10 -19 -19 -14 -19 13 0 49 27 43 33 -3 3 -16 -3
-29 -14z"/>
<path d="M6330 1110 c-35 -7 -35 -7 -5 -9 17 0 37 4 45 9 17 11 11 11 -40 0z"/>
</g>
</svg>
